<svg width="22" height="37" viewBox="0 0 22 37" fill="none" xmlns="http://www.w3.org/2000/svg">
<path d="M10.7716 8.9834C9.99552 8.9834 9.23683 9.27597 8.59152 9.82413C7.94621 10.3723 7.44324 11.1514 7.14624 12.0629C6.84923 12.9745 6.77152 13.9775 6.92294 14.9452C7.07435 15.9129 7.44808 16.8018 7.99687 17.4995C8.54567 18.1971 9.24488 18.6723 10.0061 18.8647C10.7673 19.0572 11.5563 18.9584 12.2733 18.5809C12.9903 18.2033 13.6032 17.5639 14.0344 16.7435C14.4656 15.9231 14.6957 14.9587 14.6957 13.972C14.6945 12.6494 14.2807 11.3814 13.5451 10.4462C12.8094 9.51097 11.812 8.9849 10.7716 8.9834ZM10.7716 16.4663C10.3836 16.4663 10.0042 16.32 9.68157 16.0459C9.35892 15.7719 9.10744 15.3823 8.95893 14.9265C8.81043 14.4708 8.77158 13.9692 8.84728 13.4854C8.92299 13.0015 9.10985 12.5571 9.38425 12.2083C9.65865 11.8594 10.0083 11.6219 10.3889 11.5256C10.7695 11.4294 11.164 11.4788 11.5225 11.6676C11.881 11.8564 12.1874 12.1761 12.403 12.5862C12.6186 12.9964 12.7337 13.4787 12.7337 13.972C12.7331 14.6333 12.5262 15.2673 12.1583 15.7349C11.7905 16.2025 11.2918 16.4655 10.7716 16.4663Z" fill="#45A861"/>
<path d="M18.3122 4.37864C16.4478 2.00908 13.959 0.601473 11.3263 0.427475C8.69351 0.253477 6.10338 1.32543 4.05576 3.43643C2.00814 5.54744 0.648205 8.54786 0.238413 11.8586C-0.17138 15.1693 0.398026 18.5557 1.83673 21.3641L9.25002 35.8321C9.41499 36.154 9.64055 36.4185 9.90627 36.6016C10.172 36.7847 10.4694 36.8806 10.7717 36.8806C11.0739 36.8806 11.3714 36.7847 11.6371 36.6016C11.9028 36.4185 12.1284 36.154 12.2933 35.8321L19.7069 21.3641C21.0418 18.7589 21.6318 15.6495 21.3778 12.5571C21.1239 9.46467 20.0416 6.57719 18.3122 4.37864ZM18.0629 20.0026L10.7717 34.2318L3.48044 20.0026C1.24861 15.647 1.72729 9.81816 4.61861 6.14234C5.42664 5.11508 6.38591 4.30022 7.44166 3.74427C8.49741 3.18832 9.62897 2.90218 10.7717 2.90218C11.9144 2.90218 13.046 3.18832 14.1017 3.74427C15.1575 4.30022 16.1168 5.11508 16.9248 6.14234C19.8161 9.81816 20.2947 15.647 18.0629 20.0026Z" fill="#45A861"/>
</svg>
