<svg width="18" height="24" viewBox="0 0 18 24" fill="none" xmlns="http://www.w3.org/2000/svg">
<path d="M8.90581 5.52193C8.28716 5.52193 7.68239 5.70615 7.168 6.05128C6.65361 6.39641 6.25269 6.88697 6.01594 7.4609C5.77919 8.03484 5.71724 8.66639 5.83794 9.27567C5.95863 9.88496 6.25654 10.4446 6.694 10.8839C7.13145 11.3232 7.6888 11.6223 8.29557 11.7435C8.90234 11.8647 9.53127 11.8025 10.1028 11.5648C10.6744 11.327 11.1629 10.9245 11.5066 10.4079C11.8503 9.8914 12.0338 9.28413 12.0338 8.6629C12.0328 7.83016 11.703 7.03179 11.1166 6.44295C10.5302 5.85411 9.73511 5.52288 8.90581 5.52193ZM8.90581 10.2334C8.59648 10.2334 8.2941 10.1413 8.03691 9.96871C7.77971 9.79615 7.57925 9.55087 7.46087 9.2639C7.3425 8.97693 7.31153 8.66116 7.37187 8.35651C7.43222 8.05187 7.58118 7.77204 7.7999 7.5524C8.01863 7.33276 8.29731 7.18319 8.60069 7.12259C8.90408 7.06199 9.21854 7.0931 9.50432 7.21196C9.79011 7.33083 10.0344 7.53212 10.2062 7.79039C10.3781 8.04865 10.4698 8.35229 10.4698 8.6629C10.4693 9.07927 10.3044 9.47845 10.0112 9.77287C9.71799 10.0673 9.32046 10.2329 8.90581 10.2334Z" fill="#45A861"/>
<path d="M14.9166 2.62276C13.4304 1.13082 11.4466 0.244548 9.34797 0.134993C7.24934 0.025439 5.18469 0.70037 3.55249 2.02952C1.92029 3.35868 0.836249 5.24783 0.509595 7.33237C0.182941 9.41691 0.636826 11.5491 1.78365 13.3173L7.69294 22.4268C7.82444 22.6295 8.00425 22.796 8.21605 22.9113C8.42786 23.0266 8.66497 23.087 8.90589 23.087C9.14681 23.087 9.38391 23.0266 9.59572 22.9113C9.80753 22.796 9.98733 22.6295 10.1188 22.4268L16.0283 13.3173C17.0924 11.677 17.5627 9.71924 17.3603 7.77216C17.1579 5.82508 16.2951 4.00704 14.9166 2.62276ZM14.7179 12.4601L8.90591 21.4192L3.09388 12.4601C1.31484 9.71768 1.69641 6.04765 4.00114 3.73324C4.64524 3.08645 5.4099 2.57339 6.25146 2.22335C7.09302 1.87331 7.99501 1.69314 8.90591 1.69314C9.81681 1.69314 10.7188 1.87331 11.5604 2.22335C12.4019 2.57339 13.1666 3.08645 13.8107 3.73324C16.1154 6.04765 16.4969 9.71768 14.7179 12.4601Z" fill="#45A861"/>
</svg>
